<svg xmlns="http://www.w3.org/2000/svg" xmlns:xlink="http://www.w3.org/1999/xlink" width="500" zoomAndPan="magnify" viewBox="0 0 375 374.999991" height="500" preserveAspectRatio="xMidYMid meet" version="1.0"><defs><clipPath id="477e6772f6"><path d="M 80.941406 159.472656 L 219.054688 159.472656 L 219.054688 170.882812 L 80.941406 170.882812 Z M 80.941406 159.472656 " clip-rule="nonzero"/></clipPath><clipPath id="cd6f2960cb"><path d="M 86.644531 159.472656 L 213.324219 159.472656 C 214.835938 159.472656 216.289062 160.070312 217.359375 161.140625 C 218.429688 162.210938 219.03125 163.664062 219.03125 165.175781 C 219.03125 166.691406 218.429688 168.140625 217.359375 169.210938 C 216.289062 170.28125 214.835938 170.882812 213.324219 170.882812 L 86.644531 170.882812 C 85.132812 170.882812 83.679688 170.28125 82.609375 169.210938 C 81.542969 168.140625 80.941406 166.691406 80.941406 165.175781 C 80.941406 163.664062 81.542969 162.210938 82.609375 161.140625 C 83.679688 160.070312 85.132812 159.472656 86.644531 159.472656 Z M 86.644531 159.472656 " clip-rule="nonzero"/></clipPath><clipPath id="e066ba0fd1"><path d="M 101.992188 179.621094 L 240.105469 179.621094 L 240.105469 191.035156 L 101.992188 191.035156 Z M 101.992188 179.621094 " clip-rule="nonzero"/></clipPath><clipPath id="c17778e608"><path d="M 107.699219 179.621094 L 234.375 179.621094 C 235.890625 179.621094 237.339844 180.222656 238.410156 181.292969 C 239.480469 182.363281 240.082031 183.816406 240.082031 185.328125 C 240.082031 186.839844 239.480469 188.292969 238.410156 189.363281 C 237.339844 190.433594 235.890625 191.035156 234.375 191.035156 L 107.699219 191.035156 C 106.183594 191.035156 104.734375 190.433594 103.664062 189.363281 C 102.59375 188.292969 101.992188 186.839844 101.992188 185.328125 C 101.992188 183.816406 102.59375 182.363281 103.664062 181.292969 C 104.734375 180.222656 106.183594 179.621094 107.699219 179.621094 Z M 107.699219 179.621094 " clip-rule="nonzero"/></clipPath><clipPath id="a3e5c3ded0"><path d="M 87.234375 199.773438 L 225.347656 199.773438 L 225.347656 211.183594 L 87.234375 211.183594 Z M 87.234375 199.773438 " clip-rule="nonzero"/></clipPath><clipPath id="c9d0657c24"><path d="M 92.941406 199.773438 L 219.617188 199.773438 C 221.132812 199.773438 222.582031 200.375 223.652344 201.445312 C 224.722656 202.515625 225.324219 203.964844 225.324219 205.480469 C 225.324219 206.992188 224.722656 208.445312 223.652344 209.515625 C 222.582031 210.585938 221.132812 211.183594 219.617188 211.183594 L 92.941406 211.183594 C 91.429688 211.183594 89.976562 210.585938 88.90625 209.515625 C 87.835938 208.445312 87.234375 206.992188 87.234375 205.480469 C 87.234375 203.964844 87.835938 202.515625 88.90625 201.445312 C 89.976562 200.375 91.429688 199.773438 92.941406 199.773438 Z M 92.941406 199.773438 " clip-rule="nonzero"/></clipPath><clipPath id="f8ef092a6f"><path d="M 80.941406 222.679688 L 219.054688 222.679688 L 219.054688 234.09375 L 80.941406 234.09375 Z M 80.941406 222.679688 " clip-rule="nonzero"/></clipPath><clipPath id="ee2aab98d8"><path d="M 86.644531 222.679688 L 213.324219 222.679688 C 214.835938 222.679688 216.289062 223.28125 217.359375 224.351562 C 218.429688 225.421875 219.03125 226.875 219.03125 228.386719 C 219.03125 229.902344 218.429688 231.351562 217.359375 232.421875 C 216.289062 233.492188 214.835938 234.09375 213.324219 234.09375 L 86.644531 234.09375 C 85.132812 234.09375 83.679688 233.492188 82.609375 232.421875 C 81.542969 231.351562 80.941406 229.902344 80.941406 228.386719 C 80.941406 226.875 81.542969 225.421875 82.609375 224.351562 C 83.679688 223.28125 85.132812 222.679688 86.644531 222.679688 Z M 86.644531 222.679688 " clip-rule="nonzero"/></clipPath><clipPath id="196d6a1c9c"><path d="M 41.84375 103.65625 L 128.152344 103.65625 L 128.152344 115.066406 L 41.84375 115.066406 Z M 41.84375 103.65625 " clip-rule="nonzero"/></clipPath><clipPath id="af9a0d3130"><path d="M 47.550781 103.65625 L 122.4375 103.65625 C 123.949219 103.65625 125.402344 104.257812 126.472656 105.328125 C 127.542969 106.398438 128.144531 107.847656 128.144531 109.363281 C 128.144531 110.875 127.542969 112.328125 126.472656 113.398438 C 125.402344 114.46875 123.949219 115.066406 122.4375 115.066406 L 47.550781 115.066406 C 46.035156 115.066406 44.585938 114.46875 43.515625 113.398438 C 42.445312 112.328125 41.84375 110.875 41.84375 109.363281 C 41.84375 107.847656 42.445312 106.398438 43.515625 105.328125 C 44.585938 104.257812 46.035156 103.65625 47.550781 103.65625 Z M 47.550781 103.65625 " clip-rule="nonzero"/></clipPath><clipPath id="fa53d19995"><path d="M 58.839844 267.082031 L 145.152344 267.082031 L 145.152344 278.496094 L 58.839844 278.496094 Z M 58.839844 267.082031 " clip-rule="nonzero"/></clipPath><clipPath id="7b469512a6"><path d="M 64.546875 267.082031 L 139.4375 267.082031 C 140.949219 267.082031 142.402344 267.683594 143.472656 268.753906 C 144.542969 269.824219 145.140625 271.273438 145.140625 272.789062 C 145.140625 274.300781 144.542969 275.753906 143.472656 276.824219 C 142.402344 277.894531 140.949219 278.496094 139.4375 278.496094 L 64.546875 278.496094 C 63.035156 278.496094 61.582031 277.894531 60.511719 276.824219 C 59.441406 275.753906 58.839844 274.300781 58.839844 272.789062 C 58.839844 271.273438 59.441406 269.824219 60.511719 268.753906 C 61.582031 267.683594 63.035156 267.082031 64.546875 267.082031 Z M 64.546875 267.082031 " clip-rule="nonzero"/></clipPath><clipPath id="4cad804dd5"><path d="M 55 54 L 284 54 L 284 320 L 55 320 Z M 55 54 " clip-rule="nonzero"/></clipPath><clipPath id="06ea79e295"><path d="M 187.496094 0 L 374.621094 187.125 L 187.496094 374.25 L 0.375 187.125 Z M 187.496094 0 " clip-rule="nonzero"/></clipPath><clipPath id="fa4a0b6668"><path d="M 187.496094 0 L 374.621094 187.125 L 187.496094 374.25 L 0.375 187.125 Z M 187.496094 0 " clip-rule="nonzero"/></clipPath><clipPath id="84f298391d"><path d="M 187.496094 0 L 374.621094 187.125 L 187.496094 374.25 L 0.375 187.125 Z M 187.496094 0 " clip-rule="nonzero"/></clipPath><clipPath id="2a7972c802"><path d="M 81 81 L 265 81 L 265 294 L 81 294 Z M 81 81 " clip-rule="nonzero"/></clipPath><clipPath id="f4c9046b55"><path d="M 187.496094 37.597656 L 337.546875 187.648438 L 187.496094 337.699219 L 37.445312 187.648438 Z M 187.496094 37.597656 " clip-rule="nonzero"/></clipPath><clipPath id="f055e5d3ec"><path d="M 187.496094 37.597656 L 337.546875 187.648438 L 187.496094 337.699219 L 37.445312 187.648438 Z M 187.496094 37.597656 " clip-rule="nonzero"/></clipPath><clipPath id="8cdeca08bc"><path d="M 187.496094 37.597656 L 337.546875 187.648438 L 187.496094 337.699219 L 37.445312 187.648438 Z M 187.496094 37.597656 " clip-rule="nonzero"/></clipPath><clipPath id="ee43c97562"><path d="M 229 219 L 291 219 L 291 280 L 229 280 Z M 229 219 " clip-rule="nonzero"/></clipPath><clipPath id="c309dd655c"><path d="M 229.308594 226.066406 L 236.371094 219.003906 L 290.265625 272.898438 L 283.203125 279.960938 Z M 229.308594 226.066406 " clip-rule="nonzero"/></clipPath><clipPath id="30ffbc7fbf"><path d="M 229 95 L 290 95 L 290 156 L 229 156 Z M 229 95 " clip-rule="nonzero"/></clipPath><clipPath id="9d7ebfc6d5"><path d="M 282.601562 95.222656 L 289.664062 102.285156 L 236.359375 155.585938 L 229.300781 148.527344 Z M 282.601562 95.222656 " clip-rule="nonzero"/></clipPath><clipPath id="d583425d1f"><path d="M 62 62 L 279 62 L 279 313 L 62 313 Z M 62 62 " clip-rule="nonzero"/></clipPath><clipPath id="a0d1cd7278"><path d="M 187.5 10.96875 L 364.03125 187.5 L 187.5 364.03125 L 10.96875 187.5 Z M 187.5 10.96875 " clip-rule="nonzero"/></clipPath><clipPath id="9a528573b0"><path d="M 187.5 10.96875 L 364.03125 187.5 L 187.5 364.03125 L 10.96875 187.5 Z M 187.5 10.96875 " clip-rule="nonzero"/></clipPath><clipPath id="68c1dabeac"><path d="M 15.691406 251.390625 L 102 251.390625 L 102 262.804688 L 15.691406 262.804688 Z M 15.691406 251.390625 " clip-rule="nonzero"/></clipPath><clipPath id="4c4da62b90"><path d="M 21.398438 251.390625 L 96.285156 251.390625 C 97.800781 251.390625 99.25 251.992188 100.320312 253.0625 C 101.390625 254.132812 101.992188 255.585938 101.992188 257.097656 C 101.992188 258.613281 101.390625 260.0625 100.320312 261.132812 C 99.25 262.203125 97.800781 262.804688 96.285156 262.804688 L 21.398438 262.804688 C 19.882812 262.804688 18.433594 262.203125 17.363281 261.132812 C 16.292969 260.0625 15.691406 258.613281 15.691406 257.097656 C 15.691406 255.585938 16.292969 254.132812 17.363281 253.0625 C 18.433594 251.992188 19.882812 251.390625 21.398438 251.390625 Z M 21.398438 251.390625 " clip-rule="nonzero"/></clipPath><clipPath id="cf02320edb"><path d="M 244.382812 53.191406 L 330.691406 53.191406 L 330.691406 64.601562 L 244.382812 64.601562 Z M 244.382812 53.191406 " clip-rule="nonzero"/></clipPath><clipPath id="0384fd1798"><path d="M 250.089844 53.191406 L 324.976562 53.191406 C 326.488281 53.191406 327.941406 53.792969 329.011719 54.859375 C 330.082031 55.929688 330.683594 57.382812 330.683594 58.894531 C 330.683594 60.410156 330.082031 61.859375 329.011719 62.929688 C 327.941406 64 326.488281 64.601562 324.976562 64.601562 L 250.089844 64.601562 C 248.574219 64.601562 247.125 64 246.054688 62.929688 C 244.984375 61.859375 244.382812 60.410156 244.382812 58.894531 C 244.382812 57.382812 244.984375 55.929688 246.054688 54.859375 C 247.125 53.792969 248.574219 53.191406 250.089844 53.191406 Z M 250.089844 53.191406 " clip-rule="nonzero"/></clipPath><clipPath id="9a08b9bcf6"><path d="M 28.742188 234.09375 L 115.050781 234.09375 L 115.050781 245.507812 L 28.742188 245.507812 Z M 28.742188 234.09375 " clip-rule="nonzero"/></clipPath><clipPath id="16e9952016"><path d="M 34.449219 234.09375 L 109.335938 234.09375 C 110.851562 234.09375 112.300781 234.695312 113.371094 235.765625 C 114.441406 236.835938 115.042969 238.289062 115.042969 239.800781 C 115.042969 241.3125 114.441406 242.765625 113.371094 243.835938 C 112.300781 244.90625 110.851562 245.507812 109.335938 245.507812 L 34.449219 245.507812 C 32.933594 245.507812 31.484375 244.90625 30.414062 243.835938 C 29.34375 242.765625 28.742188 241.3125 28.742188 239.800781 C 28.742188 238.289062 29.34375 236.835938 30.414062 235.765625 C 31.484375 234.695312 32.933594 234.09375 34.449219 234.09375 Z M 34.449219 234.09375 " clip-rule="nonzero"/></clipPath><clipPath id="2f6398a32a"><path d="M 206.363281 290.257812 L 292.671875 290.257812 L 292.671875 301.671875 L 206.363281 301.671875 Z M 206.363281 290.257812 " clip-rule="nonzero"/></clipPath><clipPath id="50a5c765d4"><path d="M 212.070312 290.257812 L 286.957031 290.257812 C 288.46875 290.257812 289.921875 290.859375 290.992188 291.929688 C 292.0625 293 292.664062 294.453125 292.664062 295.964844 C 292.664062 297.480469 292.0625 298.929688 290.992188 300 C 289.921875 301.070312 288.46875 301.671875 286.957031 301.671875 L 212.070312 301.671875 C 210.554688 301.671875 209.105469 301.070312 208.035156 300 C 206.964844 298.929688 206.363281 297.480469 206.363281 295.964844 C 206.363281 294.453125 206.964844 293 208.035156 291.929688 C 209.105469 290.859375 210.554688 290.257812 212.070312 290.257812 Z M 212.070312 290.257812 " clip-rule="nonzero"/></clipPath><clipPath id="b9230df60a"><path d="M 201.230469 69.417969 L 287.542969 69.417969 L 287.542969 80.832031 L 201.230469 80.832031 Z M 201.230469 69.417969 " clip-rule="nonzero"/></clipPath><clipPath id="f3819804c9"><path d="M 206.9375 69.417969 L 281.824219 69.417969 C 283.339844 69.417969 284.789062 70.019531 285.859375 71.089844 C 286.929688 72.160156 287.53125 73.609375 287.53125 75.125 C 287.53125 76.636719 286.929688 78.089844 285.859375 79.160156 C 284.789062 80.230469 283.339844 80.832031 281.824219 80.832031 L 206.9375 80.832031 C 205.425781 80.832031 203.972656 80.230469 202.902344 79.160156 C 201.832031 78.089844 201.230469 76.636719 201.230469 75.125 C 201.230469 73.609375 201.832031 72.160156 202.902344 71.089844 C 203.972656 70.019531 205.425781 69.417969 206.9375 69.417969 Z M 206.9375 69.417969 " clip-rule="nonzero"/></clipPath><clipPath id="5ba62e4ff0"><path d="M 187.5 304.804688 L 273.808594 304.804688 L 273.808594 316.21875 L 187.5 316.21875 Z M 187.5 304.804688 " clip-rule="nonzero"/></clipPath><clipPath id="773b34eb85"><path d="M 193.207031 304.804688 L 268.09375 304.804688 C 269.609375 304.804688 271.058594 305.40625 272.128906 306.476562 C 273.199219 307.546875 273.800781 309 273.800781 310.511719 C 273.800781 312.023438 273.199219 313.476562 272.128906 314.546875 C 271.058594 315.617188 269.609375 316.21875 268.09375 316.21875 L 193.207031 316.21875 C 191.691406 316.21875 190.242188 315.617188 189.171875 314.546875 C 188.101562 313.476562 187.5 312.023438 187.5 310.511719 C 187.5 309 188.101562 307.546875 189.171875 306.476562 C 190.242188 305.40625 191.691406 304.804688 193.207031 304.804688 Z M 193.207031 304.804688 " clip-rule="nonzero"/></clipPath><clipPath id="902ed74ddd"><path d="M 33.738281 86.359375 L 120.046875 86.359375 L 120.046875 97.769531 L 33.738281 97.769531 Z M 33.738281 86.359375 " clip-rule="nonzero"/></clipPath><clipPath id="2be83b70b1"><path d="M 39.441406 86.359375 L 114.332031 86.359375 C 115.84375 86.359375 117.296875 86.960938 118.367188 88.03125 C 119.4375 89.101562 120.039062 90.550781 120.039062 92.066406 C 120.039062 93.578125 119.4375 95.03125 118.367188 96.101562 C 117.296875 97.167969 115.84375 97.769531 114.332031 97.769531 L 39.441406 97.769531 C 37.929688 97.769531 36.476562 97.167969 35.40625 96.101562 C 34.335938 95.03125 33.738281 93.578125 33.738281 92.066406 C 33.738281 90.550781 34.335938 89.101562 35.40625 88.03125 C 36.476562 86.960938 37.929688 86.359375 39.441406 86.359375 Z M 39.441406 86.359375 " clip-rule="nonzero"/></clipPath></defs><g clip-path="url(#477e6772f6)"><g clip-path="url(#cd6f2960cb)"><path fill="#28bfff" d="M 80.941406 159.472656 L 219.007812 159.472656 L 219.007812 170.882812 L 80.941406 170.882812 Z M 80.941406 159.472656 " fill-opacity="1" fill-rule="nonzero"/></g></g><g clip-path="url(#e066ba0fd1)"><g clip-path="url(#c17778e608)"><path fill="#3cd0de" d="M 101.992188 179.621094 L 240.0625 179.621094 L 240.0625 191.035156 L 101.992188 191.035156 Z M 101.992188 179.621094 " fill-opacity="1" fill-rule="nonzero"/></g></g><g clip-path="url(#a3e5c3ded0)"><g clip-path="url(#c9d0657c24)"><path fill="#2c8dff" d="M 87.234375 199.773438 L 225.304688 199.773438 L 225.304688 211.183594 L 87.234375 211.183594 Z M 87.234375 199.773438 " fill-opacity="1" fill-rule="nonzero"/></g></g><g clip-path="url(#f8ef092a6f)"><g clip-path="url(#ee2aab98d8)"><path fill="#2b66d7" d="M 80.941406 222.679688 L 219.007812 222.679688 L 219.007812 234.09375 L 80.941406 234.09375 Z M 80.941406 222.679688 " fill-opacity="1" fill-rule="nonzero"/></g></g><g clip-path="url(#196d6a1c9c)"><g clip-path="url(#af9a0d3130)"><path fill="#3cd0de" d="M 41.84375 103.65625 L 128.152344 103.65625 L 128.152344 115.066406 L 41.84375 115.066406 Z M 41.84375 103.65625 " fill-opacity="1" fill-rule="nonzero"/></g></g><g clip-path="url(#fa53d19995)"><g clip-path="url(#7b469512a6)"><path fill="#2b66d7" d="M 58.839844 267.082031 L 145.152344 267.082031 L 145.152344 278.496094 L 58.839844 278.496094 Z M 58.839844 267.082031 " fill-opacity="1" fill-rule="nonzero"/></g></g><g clip-path="url(#4cad804dd5)"><g clip-path="url(#06ea79e295)"><g clip-path="url(#fa4a0b6668)"><g clip-path="url(#84f298391d)"><path fill="#100f0d" d="M 240.316406 235.058594 L 237.917969 237.457031 C 210.132812 265.242188 164.933594 265.242188 137.15625 237.464844 C 109.394531 209.703125 109.378906 164.53125 137.121094 136.746094 C 164.902344 109.007812 210.078125 109.023438 237.835938 136.785156 L 240.234375 139.179688 L 283.414062 96.003906 L 281.015625 93.605469 C 229.476562 42.066406 145.5625 42.023438 93.890625 93.605469 C 42.394531 145.191406 42.441406 229.101562 93.980469 280.644531 C 145.570312 332.234375 229.511719 332.234375 281.101562 280.644531 L 283.5 278.246094 L 240.316406 235.058594 " fill-opacity="1" fill-rule="nonzero"/></g></g></g></g><g clip-path="url(#2a7972c802)"><g clip-path="url(#f4c9046b55)"><g clip-path="url(#f055e5d3ec)"><g clip-path="url(#8cdeca08bc)"><path fill="#100f0d" d="M 229.851562 226.085938 L 227.929688 228.007812 C 205.648438 250.289062 169.402344 250.289062 147.128906 228.015625 C 124.867188 205.753906 124.855469 169.53125 147.097656 147.25 C 169.378906 125.007812 205.601562 125.019531 227.863281 147.28125 L 229.785156 149.203125 L 264.410156 114.578125 L 262.488281 112.65625 C 221.15625 71.328125 153.867188 71.292969 112.433594 112.65625 C 71.140625 154.019531 71.175781 221.308594 112.503906 262.636719 C 153.875 304.007812 221.1875 304.007812 262.558594 262.636719 L 264.480469 260.714844 L 229.851562 226.085938 " fill-opacity="1" fill-rule="nonzero"/></g></g></g></g><g clip-path="url(#ee43c97562)"><g clip-path="url(#c309dd655c)"><path fill="#100f0d" d="M 229.308594 226.066406 L 236.371094 219.003906 L 290.269531 272.902344 L 283.207031 279.964844 Z M 229.308594 226.066406 " fill-opacity="1" fill-rule="nonzero"/></g></g><g clip-path="url(#30ffbc7fbf)"><g clip-path="url(#9d7ebfc6d5)"><path fill="#100f0d" d="M 282.601562 95.222656 L 289.664062 102.285156 L 236.371094 155.574219 L 229.3125 148.515625 Z M 282.601562 95.222656 " fill-opacity="1" fill-rule="nonzero"/></g></g><g clip-path="url(#d583425d1f)"><g clip-path="url(#a0d1cd7278)"><g clip-path="url(#9a528573b0)"><path fill="#ffffff" d="M 237.328125 232.722656 L 235.066406 234.984375 C 208.855469 261.195312 166.210938 261.195312 140.007812 234.992188 C 113.820312 208.800781 113.804688 166.183594 139.972656 139.972656 C 166.183594 113.804688 208.800781 113.820312 234.992188 140.007812 L 237.253906 142.269531 L 277.984375 101.539062 L 275.722656 99.277344 C 227.101562 50.652344 147.9375 50.613281 99.191406 99.277344 C 50.613281 147.9375 50.652344 227.101562 99.277344 275.722656 C 147.945312 324.394531 227.136719 324.394531 275.808594 275.722656 L 278.070312 273.460938 L 237.328125 232.722656 " fill-opacity="1" fill-rule="nonzero"/></g></g></g><g clip-path="url(#68c1dabeac)"><g clip-path="url(#4c4da62b90)"><path fill="#3cd0de" d="M 15.691406 251.390625 L 102 251.390625 L 102 262.804688 L 15.691406 262.804688 Z M 15.691406 251.390625 " fill-opacity="1" fill-rule="nonzero"/></g></g><g clip-path="url(#cf02320edb)"><g clip-path="url(#0384fd1798)"><path fill="#2b66d7" d="M 244.382812 53.191406 L 330.691406 53.191406 L 330.691406 64.601562 L 244.382812 64.601562 Z M 244.382812 53.191406 " fill-opacity="1" fill-rule="nonzero"/></g></g><g clip-path="url(#9a08b9bcf6)"><g clip-path="url(#16e9952016)"><path fill="#2b66d7" d="M 28.742188 234.09375 L 115.050781 234.09375 L 115.050781 245.507812 L 28.742188 245.507812 Z M 28.742188 234.09375 " fill-opacity="1" fill-rule="nonzero"/></g></g><g clip-path="url(#2f6398a32a)"><g clip-path="url(#50a5c765d4)"><path fill="#28bfff" d="M 206.363281 290.257812 L 292.671875 290.257812 L 292.671875 301.671875 L 206.363281 301.671875 Z M 206.363281 290.257812 " fill-opacity="1" fill-rule="nonzero"/></g></g><g clip-path="url(#b9230df60a)"><g clip-path="url(#f3819804c9)"><path fill="#2b66d7" d="M 201.230469 69.417969 L 287.542969 69.417969 L 287.542969 80.832031 L 201.230469 80.832031 Z M 201.230469 69.417969 " fill-opacity="1" fill-rule="nonzero"/></g></g><g clip-path="url(#5ba62e4ff0)"><g clip-path="url(#773b34eb85)"><path fill="#2c8dff" d="M 187.5 304.804688 L 273.808594 304.804688 L 273.808594 316.21875 L 187.5 316.21875 Z M 187.5 304.804688 " fill-opacity="1" fill-rule="nonzero"/></g></g><g clip-path="url(#902ed74ddd)"><g clip-path="url(#2be83b70b1)"><path fill="#2b66d7" d="M 33.738281 86.359375 L 120.046875 86.359375 L 120.046875 97.769531 L 33.738281 97.769531 Z M 33.738281 86.359375 " fill-opacity="1" fill-rule="nonzero"/></g></g></svg>